{
  "accessors": [
    {
      "bufferView": 2,
      "componentType": 5126,
      "count": 418,
      "max": [
        0.030700000002980232,
        0.03060000017285347,
        0.80000001192092896
      ],
      "min": [
        -0.030700000002980232,
        -0.030799901112914085,
        0
      ],
      "type": "VEC3"
    },
    {
      "bufferView": 2,
      "byteOffset": 5016,
      "componentType": 5126,
      "count": 418,
      "max": [
        0.99990254640579224,
        0.99991166591644287,
        1
      ],
      "min": [
        -0.99991154670715332,
        -0.99991166591644287,
        -0.97779881954193115
      ],
      "type": "VEC3"
    },
    {
      "bufferView": 3,
      "componentType": 5126,
      "count": 418,
      "max": [
        1,
        0.99999779462814331,
        0.21128343045711517,
        1
      ],
      "min": [
        -1,
        -1,
        -0.2112891674041748,
        1
      ],
      "type": "VEC4"
    },
    {
      "bufferView": 1,
      "componentType": 5126,
      "count": 418,
      "max": [
        0.93731904029846191,
        0.9834403395652771
      ],
      "min": [
        0.034324176609516144,
        0.016809308901429176
      ],
      "type": "VEC2"
    },
    {
      "bufferView": 0,
      "componentType": 5125,
      "count": 2148,
      "max": [
        417
      ],
      "min": [
        0
      ],
      "type": "SCALAR"
    }
  ],
  "asset": {
    "extras": {
      "author": "CGunwale (https://sketchfab.com/cgunwale)",
      "license": "CC-BY-4.0 (http://creativecommons.org/licenses/by/4.0/)",
      "source": "https://sketchfab.com/models/30b41d95e3cc4f53afb4bac3f71fd821",
      "title": "Baseball Bat"
    },
    "generator": "Sketchfab-3.19.3",
    "version": "2.0"
  },
  "bufferViews": [
    {
      "buffer": 0,
      "byteLength": 8592,
      "byteOffset": 0,
      "name": "floatBufferViews",
      "target": 34963
    },
    {
      "buffer": 0,
      "byteLength": 3344,
      "byteOffset": 8592,
      "byteStride": 8,
      "name": "floatBufferViews",
      "target": 34962
    },
    {
      "buffer": 0,
      "byteLength": 10032,
      "byteOffset": 11936,
      "byteStride": 12,
      "name": "floatBufferViews",
      "target": 34962
    },
    {
      "buffer": 0,
      "byteLength": 6688,
      "byteOffset": 21968,
      "byteStride": 16,
      "name": "floatBufferViews",
      "target": 34962
    }
  ],
  "buffers": [
    {
      "byteLength": 28656,
      "uri": "scene.bin"
    }
  ],
  "images": [
    {
      "uri": "textures/Baseball_Bat_baseColor.png"
    },
    {
      "uri": "textures/Baseball_Bat_normal.png"
    },
    {
      "uri": "textures/Baseball_Bat_metallicRoughness.png"
    }
  ],
  "materials": [
    {
      "doubleSided": true,
      "name": "Baseball_Bat",
      "normalTexture": {
        "index": 1,
        "scale": 1,
        "texCoord": 0
      },
      "occlusionTexture": {
        "index": 2,
        "strength": 1,
        "texCoord": 0
      },
      "pbrMetallicRoughness": {
        "baseColorFactor": [
          1,
          1,
          1,
          1
        ],
        "baseColorTexture": {
          "index": 0,
          "texCoord": 0
        },
        "metallicFactor": 0,
        "metallicRoughnessTexture": {
          "index": 2,
          "texCoord": 0
        },
        "roughnessFactor": 1
      }
    }
  ],
  "meshes": [
    {
      "name": "Baseball_Bat_Baseball_Bat_0",
      "primitives": [
        {
          "attributes": {
            "NORMAL": 1,
            "POSITION": 0,
            "TANGENT": 2,
            "TEXCOORD_0": 3
          },
          "indices": 4,
          "material": 0,
          "mode": 4
        }
      ]
    }
  ],
  "nodes": [
    {
      "children": [
        1
      ],
      "name": "RootNode (gltf orientation matrix)",
      "rotation": [
        -0.70710678118654746,
        -0,
        -0,
        0.70710678118654757
      ]
    },
    {
      "children": [
        2
      ],
      "matrix": [
        0.016744965687394142,
        0.86758196353912354,
        0.49701222777366638,
        0,
        0,
        0.49708190560340881,
        -0.86770361661911011,
        0,
        -0.99985980987548828,
        0.014529666863381863,
        0.0083236191421747208,
        0,
        0.39994409680366516,
        -0.0060632727108895779,
        0.39623695611953735,
        1
      ],
      "name": "RootNode (model correction matrix)"
    },
    {
      "children": [
        3
      ],
      "matrix": [
        1,
        0,
        0,
        0,
        0,
        0,
        1,
        0,
        0,
        -1,
        0,
        0,
        0,
        0,
        0,
        1
      ],
      "name": "2294a2fcc51a4b949d818df5c55f8416.fbx"
    },
    {
      "children": [
        4
      ],
      "name": "RootNode"
    },
    {
      "children": [
        5
      ],
      "matrix": [
        1,
        0,
        0,
        0,
        0,
        2.2204460492503131e-16,
        -1,
        0,
        0,
        1,
        2.2204460492503131e-16,
        0,
        0,
        0,
        0.00039999998989515007,
        1
      ],
      "name": "Baseball_Bat"
    },
    {
      "mesh": 0,
      "name": "Baseball_Bat_Baseball_Bat_0"
    }
  ],
  "samplers": [
    {
      "magFilter": 9729,
      "minFilter": 9987,
      "wrapS": 10497,
      "wrapT": 10497
    }
  ],
  "scene": 0,
  "scenes": [
    {
      "name": "OSG_Scene",
      "nodes": [
        0
      ]
    }
  ],
  "textures": [
    {
      "sampler": 0,
      "source": 0
    },
    {
      "sampler": 0,
      "source": 1
    },
    {
      "sampler": 0,
      "source": 2
    }
  ]
}

