{
  "accessors": [
    {
      "bufferView": 2,
      "componentType": 5126,
      "count": 8249,
      "max": [
        0.9872310161590576,
        0.9872310161590576,
        0.9975770115852356
      ],
      "min": [
        -0.9872310161590576,
        -0.9872310161590576,
        -2.057710886001587
      ],
      "type": "VEC3"
    },
    {
      "bufferView": 2,
      "byteOffset": 98988,
      "componentType": 5126,
      "count": 8249,
      "max": [
        0.9999996423721313,
        0.9999996423721313,
        1.0
      ],
      "min": [
        -0.9999996423721313,
        -0.9999996423721313,
        -1.0
      ],
      "type": "VEC3"
    },
    {
      "bufferView": 1,
      "componentType": 5126,
      "count": 8249,
      "max": [
        1.0,
        1.0
      ],
      "min": [
        0.0,
        0.0
      ],
      "type": "VEC2"
    },
    {
      "bufferView": 0,
      "componentType": 5125,
      "count": 47616,
      "type": "SCALAR"
    },
    {
      "bufferView": 2,
      "byteOffset": 197976,
      "componentType": 5126,
      "count": 559,
      "max": [
        0.29145199060440063,
        -0.821183979511261,
        0.09975799918174744
      ],
      "min": [
        -0.29145199060440063,
        -1.153771996498108,
        -0.22273600101470947
      ],
      "type": "VEC3"
    },
    {
      "bufferView": 2,
      "byteOffset": 204684,
      "componentType": 5126,
      "count": 559,
      "max": [
        1.0,
        1.0,
        1.0
      ],
      "min": [
        -1.0,
        -1.0,
        -1.0
      ],
      "type": "VEC3"
    },
    {
      "bufferView": 1,
      "byteOffset": 65992,
      "componentType": 5126,
      "count": 559,
      "max": [
        1.0,
        1.0
      ],
      "min": [
        0.0,
        0.0
      ],
      "type": "VEC2"
    },
    {
      "bufferView": 0,
      "byteOffset": 190464,
      "componentType": 5125,
      "count": 2880,
      "type": "SCALAR"
    },
    {
      "bufferView": 2,
      "byteOffset": 211392,
      "componentType": 5126,
      "count": 1118,
      "max": [
        0.31633201241493225,
        -0.8521280288696289,
        0.4376240074634552
      ],
      "min": [
        -0.31950199604034424,
        -0.9565119743347168,
        0.1280760020017624
      ],
      "type": "VEC3"
    },
    {
      "bufferView": 2,
      "byteOffset": 224808,
      "componentType": 5126,
      "count": 1118,
      "max": [
        0.9945964217185974,
        0.9998832941055298,
        0.9700945615768433
      ],
      "min": [
        -0.9945964217185974,
        -0.9998832941055298,
        -0.9700945615768433
      ],
      "type": "VEC3"
    },
    {
      "bufferView": 1,
      "byteOffset": 70464,
      "componentType": 5126,
      "count": 1118,
      "max": [
        1.0,
        1.0
      ],
      "min": [
        0.0,
        0.0
      ],
      "type": "VEC2"
    },
    {
      "bufferView": 0,
      "byteOffset": 201984,
      "componentType": 5125,
      "count": 5760,
      "type": "SCALAR"
    },
    {
      "bufferView": 2,
      "byteOffset": 238224,
      "componentType": 5126,
      "count": 7839,
      "max": [
        1.5379600524902344,
        1.9554009437561035,
        -1.4614109992980957
      ],
      "min": [
        -1.4599850177764893,
        -1.3669819831848145,
        -2.925806999206543
      ],
      "type": "VEC3"
    },
    {
      "bufferView": 2,
      "byteOffset": 332292,
      "componentType": 5126,
      "count": 7839,
      "max": [
        0.9999141693115234,
        0.9993835687637329,
        0.9996337294578552
      ],
      "min": [
        -0.9997966885566711,
        -0.999876856803894,
        -0.9983185529708862
      ],
      "type": "VEC3"
    },
    {
      "bufferView": 1,
      "byteOffset": 79408,
      "componentType": 5126,
      "count": 7839,
      "max": [
        1.0,
        1.0
      ],
      "min": [
        0.0,
        0.0
      ],
      "type": "VEC2"
    },
    {
      "bufferView": 0,
      "byteOffset": 225024,
      "componentType": 5125,
      "count": 41472,
      "type": "SCALAR"
    },
    {
      "bufferView": 2,
      "byteOffset": 426360,
      "componentType": 5126,
      "count": 8652,
      "max": [
        1.8118799924850464,
        0.7467889785766602,
        -1.5844719409942627
      ],
      "min": [
        0.20332500338554382,
        -1.6734100580215454,
        -2.823362112045288
      ],
      "type": "VEC3"
    },
    {
      "bufferView": 2,
      "byteOffset": 530184,
      "componentType": 5126,
      "count": 8652,
      "max": [
        0.9983991384506226,
        0.9983811974525452,
        0.9984958171844482
      ],
      "min": [
        -0.9992501139640808,
        -0.9998136162757874,
        -0.9991774559020996
      ],
      "type": "VEC3"
    },
    {
      "bufferView": 1,
      "byteOffset": 142120,
      "componentType": 5126,
      "count": 8652,
      "max": [
        1.0,
        1.0
      ],
      "min": [
        0.0,
        0.0
      ],
      "type": "VEC2"
    },
    {
      "bufferView": 0,
      "byteOffset": 390912,
      "componentType": 5125,
      "count": 46080,
      "type": "SCALAR"
    },
    {
      "bufferView": 2,
      "byteOffset": 634008,
      "componentType": 5126,
      "count": 8644,
      "max": [
        0.5812849998474121,
        1.6133430004119873,
        -1.5249539613723755
      ],
      "min": [
        -1.736793041229248,
        -1.7606650590896606,
        -2.7562448978424072
      ],
      "type": "VEC3"
    },
    {
      "bufferView": 2,
      "byteOffset": 737736,
      "componentType": 5126,
      "count": 8644,
      "max": [
        0.9998533725738525,
        0.9999998807907104,
        0.9994538426399231
      ],
      "min": [
        -0.9998111128807068,
        -0.999876856803894,
        -0.9983185529708862
      ],
      "type": "VEC3"
    },
    {
      "bufferView": 1,
      "byteOffset": 211336,
      "componentType": 5126,
      "count": 8644,
      "max": [
        1.0,
        1.0
      ],
      "min": [
        0.0,
        0.0
      ],
      "type": "VEC2"
    },
    {
      "bufferView": 0,
      "byteOffset": 575232,
      "componentType": 5125,
      "count": 46080,
      "type": "SCALAR"
    },
    {
      "bufferView": 2,
      "byteOffset": 841464,
      "componentType": 5126,
      "count": 9678,
      "max": [
        1.2867159843444824,
        1.2308269739151,
        -1.1463379859924316
      ],
      "min": [
        -1.2740219831466675,
        -1.553691029548645,
        -2.387052059173584
      ],
      "type": "VEC3"
    },
    {
      "bufferView": 2,
      "byteOffset": 957600,
      "componentType": 5126,
      "count": 9678,
      "max": [
        0.9999940395355225,
        0.9996368288993835,
        0.9999722242355347
      ],
      "min": [
        -0.9992924928665161,
        -0.9998683929443359,
        -0.999841034412384
      ],
      "type": "VEC3"
    },
    {
      "bufferView": 1,
      "byteOffset": 280488,
      "componentType": 5126,
      "count": 9678,
      "max": [
        1.0,
        1.0
      ],
      "min": [
        0.0,
        0.0
      ],
      "type": "VEC2"
    },
    {
      "bufferView": 0,
      "byteOffset": 759552,
      "componentType": 5125,
      "count": 50688,
      "type": "SCALAR"
    },
    {
      "bufferView": 2,
      "byteOffset": 1073736,
      "componentType": 5126,
      "count": 8647,
      "max": [
        0.4970560073852539,
        1.5269850492477417,
        -1.1728999614715576
      ],
      "min": [
        -1.327754020690918,
        -0.6389470100402832,
        -2.2681000232696533
      ],
      "type": "VEC3"
    },
    {
      "bufferView": 2,
      "byteOffset": 1177500,
      "componentType": 5126,
      "count": 8647,
      "max": [
        0.9999243021011353,
        0.9980741739273071,
        0.9994397163391113
      ],
      "min": [
        -0.9991298317909241,
        -0.9998822212219238,
        -0.9975369572639465
      ],
      "type": "VEC3"
    },
    {
      "bufferView": 1,
      "byteOffset": 357912,
      "componentType": 5126,
      "count": 8647,
      "max": [
        1.0,
        1.0
      ],
      "min": [
        0.0,
        0.0
      ],
      "type": "VEC2"
    },
    {
      "bufferView": 0,
      "byteOffset": 962304,
      "componentType": 5125,
      "count": 46080,
      "type": "SCALAR"
    },
    {
      "bufferView": 2,
      "byteOffset": 1281264,
      "componentType": 5126,
      "count": 8694,
      "max": [
        1.3249330520629883,
        0.3370549976825714,
        -1.1588200330734253
      ],
      "min": [
        -0.9931210279464722,
        -1.3770079612731934,
        -2.387052059173584
      ],
      "type": "VEC3"
    },
    {
      "bufferView": 2,
      "byteOffset": 1385592,
      "componentType": 5126,
      "count": 8694,
      "max": [
        0.9998793601989746,
        0.9983811974525452,
        0.9996350407600403
      ],
      "min": [
        -0.9999294281005859,
        -0.9998136162757874,
        -0.99908846616745
      ],
      "type": "VEC3"
    },
    {
      "bufferView": 1,
      "byteOffset": 427088,
      "componentType": 5126,
      "count": 8694,
      "max": [
        1.0,
        1.0
      ],
      "min": [
        0.0,
        0.0
      ],
      "type": "VEC2"
    },
    {
      "bufferView": 0,
      "byteOffset": 1146624,
      "componentType": 5125,
      "count": 46080,
      "type": "SCALAR"
    }
  ],
  "asset": {
    "extras": {
      "author": "Beany boy (https://sketchfab.com/Beany-Boy)",
      "license": "CC-BY-4.0 (http://creativecommons.org/licenses/by/4.0/)",
      "source": "https://sketchfab.com/3d-models/diglett-94e19953918a4b27bcd936d039c9bccf",
      "title": "diglett"
    },
    "generator": "Sketchfab-10.59.0",
    "version": "2.0"
  },
  "bufferViews": [
    {
      "buffer": 0,
      "byteLength": 1330944,
      "name": "floatBufferViews",
      "target": 34963
    },
    {
      "buffer": 0,
      "byteLength": 496640,
      "byteOffset": 1330944,
      "byteStride": 8,
      "name": "floatBufferViews",
      "target": 34962
    },
    {
      "buffer": 0,
      "byteLength": 1489920,
      "byteOffset": 1827584,
      "byteStride": 12,
      "name": "floatBufferViews",
      "target": 34962
    }
  ],
  "buffers": [
    {
      "byteLength": 3317504,
      "uri": "scene.bin"
    }
  ],
  "extensionsUsed": [
    "KHR_materials_clearcoat"
  ],
  "images": [
    {
      "uri": "textures/rock_baseColor.jpeg"
    }
  ],
  "materials": [
    {
      "doubleSided": true,
      "extensions": {
        "KHR_materials_clearcoat": {
          "clearcoatFactor": 1.0,
          "clearcoatRoughnessFactor": 0.04
        }
      },
      "name": "material",
      "pbrMetallicRoughness": {
        "baseColorFactor": [
          0.6281055095,
          0.1229082368,
          0.1229082368,
          1.0
        ],
        "metallicFactor": 0.0,
        "roughnessFactor": 0.317310557
      }
    },
    {
      "doubleSided": true,
      "extensions": {
        "KHR_materials_clearcoat": {
          "clearcoatFactor": 1.0,
          "clearcoatRoughnessFactor": 0.04
        }
      },
      "name": "oeil",
      "pbrMetallicRoughness": {
        "baseColorFactor": [
          0.0328297066,
          0.0089638696,
          0.002864062,
          1.0
        ],
        "metallicFactor": 0.0,
        "roughnessFactor": 0.0
      }
    },
    {
      "doubleSided": true,
      "name": "peau",
      "pbrMetallicRoughness": {
        "baseColorFactor": [
          0.4987199531,
          0.171863383,
          0.0916425095,
          1.0
        ],
        "metallicFactor": 0.0
      }
    },
    {
      "doubleSided": true,
      "name": "rock",
      "pbrMetallicRoughness": {
        "baseColorTexture": {
          "index": 0
        },
        "metallicFactor": 0.0
      }
    }
  ],
  "meshes": [
    {
      "name": "Object_0",
      "primitives": [
        {
          "attributes": {
            "NORMAL": 1,
            "POSITION": 0,
            "TEXCOORD_0": 2
          },
          "indices": 3,
          "material": 2,
          "mode": 4
        }
      ]
    },
    {
      "name": "Object_1",
      "primitives": [
        {
          "attributes": {
            "NORMAL": 5,
            "POSITION": 4,
            "TEXCOORD_0": 6
          },
          "indices": 7,
          "material": 0,
          "mode": 4
        }
      ]
    },
    {
      "name": "Object_2",
      "primitives": [
        {
          "attributes": {
            "NORMAL": 9,
            "POSITION": 8,
            "TEXCOORD_0": 10
          },
          "indices": 11,
          "material": 1,
          "mode": 4
        }
      ]
    },
    {
      "name": "Object_3",
      "primitives": [
        {
          "attributes": {
            "NORMAL": 13,
            "POSITION": 12,
            "TEXCOORD_0": 14
          },
          "indices": 15,
          "material": 3,
          "mode": 4
        }
      ]
    },
    {
      "name": "Object_4",
      "primitives": [
        {
          "attributes": {
            "NORMAL": 17,
            "POSITION": 16,
            "TEXCOORD_0": 18
          },
          "indices": 19,
          "material": 3,
          "mode": 4
        }
      ]
    },
    {
      "name": "Object_5",
      "primitives": [
        {
          "attributes": {
            "NORMAL": 21,
            "POSITION": 20,
            "TEXCOORD_0": 22
          },
          "indices": 23,
          "material": 3,
          "mode": 4
        }
      ]
    },
    {
      "name": "Object_6",
      "primitives": [
        {
          "attributes": {
            "NORMAL": 25,
            "POSITION": 24,
            "TEXCOORD_0": 26
          },
          "indices": 27,
          "material": 3,
          "mode": 4
        }
      ]
    },
    {
      "name": "Object_7",
      "primitives": [
        {
          "attributes": {
            "NORMAL": 29,
            "POSITION": 28,
            "TEXCOORD_0": 30
          },
          "indices": 31,
          "material": 3,
          "mode": 4
        }
      ]
    },
    {
      "name": "Object_8",
      "primitives": [
        {
          "attributes": {
            "NORMAL": 33,
            "POSITION": 32,
            "TEXCOORD_0": 34
          },
          "indices": 35,
          "material": 3,
          "mode": 4
        }
      ]
    }
  ],
  "nodes": [
    {
      "children": [
        1
      ],
      "matrix": [
        1.0,
        0.0,
        0.0,
        0.0,
        0.0,
        2.220446049250313e-16,
        -1.0,
        0.0,
        0.0,
        1.0,
        2.220446049250313e-16,
        0.0,
        0.0,
        0.0,
        0.0,
        1.0
      ],
      "name": "Sketchfab_model"
    },
    {
      "children": [
        2,
        3,
        4,
        5,
        6,
        7,
        8,
        9,
        10
      ],
      "name": "diglett.obj.cleaner.materialmerger.gles"
    },
    {
      "mesh": 0,
      "name": "Object_2"
    },
    {
      "mesh": 1,
      "name": "Object_3"
    },
    {
      "mesh": 2,
      "name": "Object_4"
    },
    {
      "mesh": 3,
      "name": "Object_5"
    },
    {
      "mesh": 4,
      "name": "Object_6"
    },
    {
      "mesh": 5,
      "name": "Object_7"
    },
    {
      "mesh": 6,
      "name": "Object_8"
    },
    {
      "mesh": 7,
      "name": "Object_9"
    },
    {
      "mesh": 8,
      "name": "Object_10"
    }
  ],
  "samplers": [
    {
      "magFilter": 9729,
      "minFilter": 9987,
      "wrapS": 10497,
      "wrapT": 10497
    }
  ],
  "scene": 0,
  "scenes": [
    {
      "name": "Sketchfab_Scene",
      "nodes": [
        0
      ]
    }
  ],
  "textures": [
    {
      "sampler": 0,
      "source": 0
    }
  ]
}
