{
  "accessors": [
    {
      "bufferView": 2,
      "componentType": 5126,
      "count": 2276,
      "max": [
        1.1526762247085571,
        1.0174325704574585,
        0.6872374415397644
      ],
      "min": [
        -0.98948168754577637,
        -1.148942232131958,
        -1.1664597988128662
      ],
      "type": "VEC3"
    },
    {
      "bufferView": 2,
      "byteOffset": 27312,
      "componentType": 5126,
      "count": 2276,
      "max": [
        0.99992787837982178,
        0.99957919120788574,
        0.99999821186065674
      ],
      "min": [
        -0.99976193904876709,
        -0.99482893943786621,
        -0.99938464164733887
      ],
      "type": "VEC3"
    },
    {
      "bufferView": 3,
      "componentType": 5126,
      "count": 2276,
      "max": [
        0.99456673860549927,
        0.93705528974533081,
        0.99995541572570801,
        1
      ],
      "min": [
        -0.99962103366851807,
        -0.99999797344207764,
        -0.99992763996124268,
        1
      ],
      "type": "VEC4"
    },
    {
      "bufferView": 1,
      "componentType": 5126,
      "count": 2276,
      "max": [
        0.99804681539535522,
        0.77262842655181885
      ],
      "min": [
        0.0019531392026692629,
        0.0019531394354999065
      ],
      "type": "VEC2"
    },
    {
      "bufferView": 1,
      "byteOffset": 18208,
      "componentType": 5126,
      "count": 2276,
      "max": [
        0.99804681539535522,
        0.77262842655181885
      ],
      "min": [
        0.0019531392026692629,
        0.0019531394354999065
      ],
      "type": "VEC2"
    },
    {
      "bufferView": 1,
      "byteOffset": 36416,
      "componentType": 5126,
      "count": 2276,
      "max": [
        0.99804681539535522,
        0.77262842655181885
      ],
      "min": [
        0.0019531392026692629,
        0.0019531394354999065
      ],
      "type": "VEC2"
    },
    {
      "bufferView": 1,
      "byteOffset": 54624,
      "componentType": 5126,
      "count": 2276,
      "max": [
        0.99804681539535522,
        0.77262842655181885
      ],
      "min": [
        0.0019531392026692629,
        0.0019531394354999065
      ],
      "type": "VEC2"
    },
    {
      "bufferView": 0,
      "componentType": 5125,
      "count": 13314,
      "max": [
        2275
      ],
      "min": [
        0
      ],
      "type": "SCALAR"
    }
  ],
  "asset": {
    "extras": {
      "author": "skinny hands (https://sketchfab.com/skinnyhands)",
      "license": "CC-BY-4.0 (http://creativecommons.org/licenses/by/4.0/)",
      "source": "https://sketchfab.com/3d-models/stylized-rock-47f2a1d475684327a4b9447772690cde",
      "title": "Stylized  rock"
    },
    "generator": "Sketchfab-9.95.0",
    "version": "2.0"
  },
  "bufferViews": [
    {
      "buffer": 0,
      "byteLength": 53256,
      "byteOffset": 0,
      "name": "floatBufferViews",
      "target": 34963
    },
    {
      "buffer": 0,
      "byteLength": 72832,
      "byteOffset": 53256,
      "byteStride": 8,
      "name": "floatBufferViews",
      "target": 34962
    },
    {
      "buffer": 0,
      "byteLength": 54624,
      "byteOffset": 126088,
      "byteStride": 12,
      "name": "floatBufferViews",
      "target": 34962
    },
    {
      "buffer": 0,
      "byteLength": 36416,
      "byteOffset": 180712,
      "byteStride": 16,
      "name": "floatBufferViews",
      "target": 34962
    }
  ],
  "buffers": [
    {
      "byteLength": 217128,
      "uri": "scene.bin"
    }
  ],
  "images": [
    {
      "uri": "textures/low_1_baseColor.png"
    },
    {
      "uri": "textures/low_1_metallicRoughness.png"
    },
    {
      "uri": "textures/low_1_normal.png"
    }
  ],
  "materials": [
    {
      "doubleSided": true,
      "emissiveFactor": [
        0,
        0,
        0
      ],
      "name": "low_1",
      "normalTexture": {
        "index": 2,
        "scale": 1,
        "texCoord": 0
      },
      "pbrMetallicRoughness": {
        "baseColorFactor": [
          1,
          1,
          1,
          1
        ],
        "baseColorTexture": {
          "index": 0,
          "texCoord": 0
        },
        "metallicFactor": 1,
        "metallicRoughnessTexture": {
          "index": 1,
          "texCoord": 0
        },
        "roughnessFactor": 1
      }
    }
  ],
  "meshes": [
    {
      "primitives": [
        {
          "attributes": {
            "NORMAL": 1,
            "POSITION": 0,
            "TANGENT": 2,
            "TEXCOORD_0": 3,
            "TEXCOORD_1": 4,
            "TEXCOORD_2": 5,
            "TEXCOORD_3": 6
          },
          "indices": 7,
          "material": 0,
          "mode": 4
        }
      ]
    }
  ],
  "nodes": [
    {
      "children": [
        1
      ],
      "name": "RootNode (gltf orientation matrix)",
      "rotation": [
        -0.70710678118654746,
        -0,
        -0,
        0.70710678118654757
      ]
    },
    {
      "children": [
        2
      ],
      "matrix": [
        0.21486486494541168,
        0,
        0,
        0,
        0,
        0.21486486494541168,
        0,
        0,
        0,
        0,
        0.21486486494541168,
        0,
        0,
        0,
        0,
        1
      ],
      "name": "RootNode (model correction matrix)"
    },
    {
      "children": [
        3
      ],
      "name": "root"
    },
    {
      "children": [
        4
      ],
      "matrix": [
        1,
        0,
        0,
        0,
        0,
        2.2204460492503131e-16,
        1,
        0,
        0,
        -1,
        2.2204460492503131e-16,
        0,
        0,
        0,
        0,
        1
      ],
      "name": "GLTF_SceneRootNode"
    },
    {
      "children": [
        5
      ],
      "matrix": [
        -0.84713243784369618,
        -6.1046708799139537e-09,
        -0.53138181447335664,
        0,
        0.53138181447334953,
        -1.7366865212586902e-07,
        -0.84713243784368264,
        0,
        -8.7112898672359051e-08,
        -0.99999999999998512,
        1.5036425948800058e-07,
        0,
        0,
        0,
        0,
        1
      ],
      "name": "stone_0"
    },
    {
      "mesh": 0,
      "name": ""
    }
  ],
  "samplers": [
    {
      "magFilter": 9729,
      "minFilter": 9987,
      "wrapS": 10497,
      "wrapT": 10497
    }
  ],
  "scene": 0,
  "scenes": [
    {
      "name": "OSG_Scene",
      "nodes": [
        0
      ]
    }
  ],
  "textures": [
    {
      "sampler": 0,
      "source": 0
    },
    {
      "sampler": 0,
      "source": 1
    },
    {
      "sampler": 0,
      "source": 2
    }
  ]
}

